<svg width="21" height="20" viewBox="0 0 21 20" fill="none" xmlns="http://www.w3.org/2000/svg">
  <g id="Logo">
    <path id="Vector" fill-rule="evenodd" clip-rule="evenodd"
      d="M20.1 10.229C20.1 9.51996 20.0364 8.83814 19.9182 8.18359H10.5V12.0518H15.8818C15.65 13.3018 14.9455 14.3609 13.8864 15.07V17.579H17.1182C19.0091 15.8381 20.1 13.2745 20.1 10.229Z"
      fill="#4285F4" />
    <path id="Vector_2" fill-rule="evenodd" clip-rule="evenodd"
      d="M10.5 19.9975C13.2 19.9975 15.4636 19.102 17.1182 17.5747L13.8864 15.0656C12.9909 15.6656 11.8455 16.0202 10.5 16.0202C7.89546 16.0202 5.69092 14.2611 4.90455 11.8975H1.56364V14.4884C3.2091 17.7566 6.59092 19.9975 10.5 19.9975Z"
      fill="#34A853" />
    <path id="Vector_3" fill-rule="evenodd" clip-rule="evenodd"
      d="M4.90455 11.9017C4.70455 11.3017 4.59091 10.6607 4.59091 10.0017C4.59091 9.34256 4.70455 8.70165 4.90455 8.10165V5.51074H1.56364C0.886364 6.86074 0.5 8.38802 0.5 10.0017C0.5 11.6153 0.886364 13.1426 1.56364 14.4926L4.90455 11.9017Z"
      fill="#FBBC05" />
    <path id="Vector_4" fill-rule="evenodd" clip-rule="evenodd"
      d="M10.5 3.97727C11.9682 3.97727 13.2864 4.48182 14.3227 5.47273L17.1909 2.60455C15.4591 0.990909 13.1955 0 10.5 0C6.59092 0 3.2091 2.24091 1.56364 5.50909L4.90455 8.1C5.69092 5.73636 7.89546 3.97727 10.5 3.97727Z"
      fill="#EA4335" />
  </g>
</svg>